# xmcd CD database file
#
# Track frame offsets:
#	150
#	13162
#	28830
#	40407
#	55545
#	67972
#	78540
#	92120
#	111190
#	131530
#	148552
#	163162
#	179725
#	196247
#
# Disc length: 2772 seconds
#
# Revision: 0
# Processed by: cddbd v1.4PL0 Copyright (c) Steve Scherf et al.
# Submitted via: CDex 1.50
#
DISCID=c40ad20e
DTITLE=Totte Björklöf - Får jag lov 2 - Saanko luvan 2
DYEAR=1900
DGENRE=Jazz
TTITLE0=June Night
TTITLE1=Sulle salaisuuden kertoa mä voisin
TTITLE2=Bossa de Sexta
TTITLE3=Nuages - She
TTITLE4=Snedseglarn
TTITLE5=Close to You
TTITLE6=Violetta
TTITLE7=On The Street Where You Live
TTITLE8=Stockholm, mina drömmars stad
TTITLE9=Briggens blåögda blonda kapten
TTITLE10=East of The Sun
TTITLE11=What Am I Here for
TTITLE12=Around The World in 80 Days, Sleepy Lagoon, Tenderly
TTITLE13=Tottes schottis
EXTD=
EXTT0=
EXTT1=
EXTT2=
EXTT3=
EXTT4=
EXTT5=
EXTT6=
EXTT7=
EXTT8=
EXTT9=
EXTT10=
EXTT11=
EXTT12=
EXTT13=
PLAYORDER=
